{
  "accessors": [
    {
      "bufferView": 2,
      "componentType": 5126,
      "count": 914,
      "max": [
        11.306720733642578,
        0.17545244097709656,
        3.8308825492858887
      ],
      "min": [
        -11.306720733642578,
        -0.4378909766674042,
        -3.472384452819824
      ],
      "type": "VEC3"
    },
    {
      "bufferView": 2,
      "byteOffset": 10968,
      "componentType": 5126,
      "count": 914,
      "max": [
        1.0,
        1.0,
        1.0
      ],
      "min": [
        -1.0,
        -1.0,
        -1.0
      ],
      "type": "VEC3"
    },
    {
      "bufferView": 3,
      "componentType": 5126,
      "count": 914,
      "max": [
        0.9999838471412659,
        1.0,
        1.0,
        1.0
      ],
      "min": [
        -0.7969934344291687,
        -1.0,
        -1.0,
        1.0
      ],
      "type": "VEC4"
    },
    {
      "bufferView": 1,
      "componentType": 5126,
      "count": 914,
      "max": [
        0.9352160096168518,
        0.9980080723762512
      ],
      "min": [
        0.001866698730736971,
        0.00199203216470778
      ],
      "type": "VEC2"
    },
    {
      "bufferView": 1,
      "byteOffset": 7312,
      "componentType": 5126,
      "count": 914,
      "max": [
        0.9352160096168518,
        0.9980080723762512
      ],
      "min": [
        0.001866698730736971,
        0.00199203216470778
      ],
      "type": "VEC2"
    },
    {
      "bufferView": 0,
      "componentType": 5125,
      "count": 3150,
      "type": "SCALAR"
    },
    {
      "bufferView": 2,
      "byteOffset": 21936,
      "componentType": 5126,
      "count": 5057,
      "max": [
        10.846837997436523,
        0.4378909766674042,
        3.03778076171875
      ],
      "min": [
        -10.905981063842773,
        0.15865489840507507,
        -2.797123908996582
      ],
      "type": "VEC3"
    },
    {
      "bufferView": 2,
      "byteOffset": 82620,
      "componentType": 5126,
      "count": 5057,
      "max": [
        0.9127882122993469,
        1.0,
        0.9129642844200134
      ],
      "min": [
        -0.9127882719039917,
        -1.0,
        -0.9352413415908813
      ],
      "type": "VEC3"
    },
    {
      "bufferView": 3,
      "byteOffset": 14624,
      "componentType": 5126,
      "count": 5057,
      "max": [
        1.0,
        0.9127882719039917,
        0.17768137156963348,
        1.0
      ],
      "min": [
        0.40843307971954346,
        -0.9127882122993469,
        -0.27950507402420044,
        -1.0
      ],
      "type": "VEC4"
    },
    {
      "bufferView": 1,
      "byteOffset": 14624,
      "componentType": 5126,
      "count": 5057,
      "max": [
        1.0000001192092896,
        0.2682367265224457
      ],
      "min": [
        0.0,
        0.0
      ],
      "type": "VEC2"
    },
    {
      "bufferView": 1,
      "byteOffset": 55080,
      "componentType": 5126,
      "count": 5057,
      "max": [
        1.0000001192092896,
        0.2682367265224457
      ],
      "min": [
        0.0,
        0.0
      ],
      "type": "VEC2"
    },
    {
      "bufferView": 0,
      "byteOffset": 12600,
      "componentType": 5125,
      "count": 11472,
      "type": "SCALAR"
    }
  ],
  "asset": {
    "extras": {
      "author": "oscarherry3d (https://sketchfab.com/oscarherry3d)",
      "license": "CC-BY-4.0 (http://creativecommons.org/licenses/by/4.0/)",
      "source": "https://sketchfab.com/3d-models/keyboard-66f5ca31bf154c82ae5284a32a362a4e",
      "title": "Keyboard"
    },
    "generator": "Sketchfab-12.67.0",
    "version": "2.0"
  },
  "bufferViews": [
    {
      "buffer": 0,
      "byteLength": 58488,
      "name": "floatBufferViews",
      "target": 34963
    },
    {
      "buffer": 0,
      "byteLength": 95536,
      "byteOffset": 58488,
      "byteStride": 8,
      "name": "floatBufferViews",
      "target": 34962
    },
    {
      "buffer": 0,
      "byteLength": 143304,
      "byteOffset": 154024,
      "byteStride": 12,
      "name": "floatBufferViews",
      "target": 34962
    },
    {
      "buffer": 0,
      "byteLength": 95536,
      "byteOffset": 297328,
      "byteStride": 16,
      "name": "floatBufferViews",
      "target": 34962
    }
  ],
  "buffers": [
    {
      "byteLength": 392864,
      "uri": "scene.bin"
    }
  ],
  "images": [
    {
      "uri": "textures/Keyboard_Body1_baseColor.png"
    },
    {
      "uri": "textures/Keyboard_Body1_normal.png"
    },
    {
      "uri": "textures/Keyboard_Keys_baseColor.png"
    },
    {
      "uri": "textures/Keyboard_Keys_metallicRoughness.png"
    },
    {
      "uri": "textures/Keyboard_Keys_normal.png"
    }
  ],
  "materials": [
    {
      "doubleSided": true,
      "name": "Keyboard_Body1",
      "normalTexture": {
        "index": 1,
        "scale": 0.015
      },
      "pbrMetallicRoughness": {
        "baseColorTexture": {
          "index": 0
        },
        "roughnessFactor": 0.10804115849999996
      }
    },
    {
      "doubleSided": true,
      "name": "Keyboard_Keys",
      "normalTexture": {
        "index": 4,
        "scale": 0.0687881098
      },
      "pbrMetallicRoughness": {
        "baseColorTexture": {
          "index": 2
        },
        "metallicRoughnessTexture": {
          "index": 3
        },
        "roughnessFactor": 0.2029344512
      }
    }
  ],
  "meshes": [
    {
      "name": "Keyboard_Body_Keyboard_Body1_0",
      "primitives": [
        {
          "attributes": {
            "NORMAL": 1,
            "POSITION": 0,
            "TANGENT": 2,
            "TEXCOORD_0": 3,
            "TEXCOORD_1": 4
          },
          "indices": 5,
          "material": 0,
          "mode": 4
        }
      ]
    },
    {
      "name": "Keys_Keyboard_Keys_0",
      "primitives": [
        {
          "attributes": {
            "NORMAL": 7,
            "POSITION": 6,
            "TANGENT": 8,
            "TEXCOORD_0": 9,
            "TEXCOORD_1": 10
          },
          "indices": 11,
          "material": 1,
          "mode": 4
        }
      ]
    }
  ],
  "nodes": [
    {
      "children": [
        1
      ],
      "matrix": [
        1.0,
        0.0,
        0.0,
        0.0,
        0.0,
        2.220446049250313e-16,
        -1.0,
        0.0,
        0.0,
        1.0,
        2.220446049250313e-16,
        0.0,
        0.0,
        0.0,
        0.0,
        1.0
      ],
      "name": "Sketchfab_model"
    },
    {
      "children": [
        2
      ],
      "matrix": [
        1.0,
        0.0,
        0.0,
        0.0,
        0.0,
        0.0,
        1.0,
        0.0,
        0.0,
        -1.0,
        0.0,
        0.0,
        0.0,
        0.0,
        0.0,
        1.0
      ],
      "name": "Team2_Herry_Keyboard.fbx"
    },
    {
      "children": [
        3
      ],
      "name": "RootNode"
    },
    {
      "children": [
        4,
        6
      ],
      "name": "group1"
    },
    {
      "children": [
        5
      ],
      "name": "Keyboard_Body"
    },
    {
      "mesh": 0,
      "name": "Keyboard_Body_Keyboard_Body1_0"
    },
    {
      "children": [
        7
      ],
      "name": "Keys"
    },
    {
      "mesh": 1,
      "name": "Keys_Keyboard_Keys_0"
    }
  ],
  "samplers": [
    {
      "magFilter": 9729,
      "minFilter": 9987,
      "wrapS": 10497,
      "wrapT": 10497
    }
  ],
  "scene": 0,
  "scenes": [
    {
      "name": "Sketchfab_Scene",
      "nodes": [
        0
      ]
    }
  ],
  "textures": [
    {
      "sampler": 0,
      "source": 0
    },
    {
      "sampler": 0,
      "source": 1
    },
    {
      "sampler": 0,
      "source": 2
    },
    {
      "sampler": 0,
      "source": 3
    },
    {
      "sampler": 0,
      "source": 4
    }
  ]
}
